<svg xmlns="http://www.w3.org/2000/svg" viewBox="0 0 1600 900" role="img" aria-labelledby="t d"><title id="t">Wave-energy conversion chain</title><desc id="d">Wave motion converted through a PMSG, field-oriented control, DC link and grid-side inverter.</desc><rect width="1600" height="900" fill="#f8fbfc"/><text x="100" y="100" font-family="Arial,sans-serif" font-size="34" font-weight="700" fill="#143c52">WAVE-ENERGY CONVERSION CHAIN</text><text x="100" y="810" font-family="Arial,sans-serif" font-size="23" fill="#506779">Variable mechanical input → regulated electrical conversion → synchronized grid injection</text><g font-family="Arial,sans-serif"><path d="M90 340c55-75 110 75 165 0s110 75 165 0" fill="none" stroke="#2c8fb8" stroke-width="12"/><text x="125" y="430" font-size="25" font-weight="700" fill="#143c52">WAVE CAPTURE</text><path d="M420 355H520" stroke="#0b4f6c" stroke-width="6"/><path d="m520 355-24-14v28z" fill="#0b4f6c"/><rect x="520" y="260" width="215" height="190" fill="#fff" stroke="#90a8b5" stroke-width="3"/><circle cx="628" cy="343" r="60" fill="#edf4f7" stroke="#0b4f6c" stroke-width="4"/><path d="M628 283v120M568 343h120" stroke="#0b4f6c" stroke-width="5"/><text x="567" y="485" font-size="24" font-weight="700" fill="#143c52">PMSG</text><path d="M735 355H845" stroke="#0b4f6c" stroke-width="6"/><path d="m845 355-24-14v28z" fill="#0b4f6c"/><rect x="845" y="245" width="250" height="220" fill="#fff" stroke="#0b4f6c" stroke-width="4"/><text x="890" y="305" font-size="27" font-weight="700" fill="#143c52">FOC / AC–DC</text><path d="M895 365h150M920 330l35 35-35 35M1020 330l-35 35 35 35" fill="none" stroke="#2c8fb8" stroke-width="6"/><text x="894" y="430" font-size="18" fill="#637783">Machine-side regulation</text><path d="M1095 355H1175" stroke="#0b4f6c" stroke-width="6"/><path d="m1175 355-24-14v28z" fill="#0b4f6c"/><rect x="1175" y="265" width="120" height="180" fill="#fff" stroke="#90a8b5" stroke-width="3"/><line x1="1215" y1="300" x2="1215" y2="410" stroke="#0b4f6c" stroke-width="6"/><line x1="1255" y1="300" x2="1255" y2="410" stroke="#0b4f6c" stroke-width="6"/><text x="1189" y="485" font-size="22" font-weight="700" fill="#143c52">DC LINK</text><path d="M1295 355H1370" stroke="#0b4f6c" stroke-width="6"/><path d="m1370 355-24-14v28z" fill="#0b4f6c"/><rect x="1370" y="245" width="150" height="220" fill="#fff" stroke="#0b4f6c" stroke-width="4"/><path d="M1395 385c25-60 50 60 75 0" fill="none" stroke="#2c8fb8" stroke-width="6"/><text x="1383" y="305" font-size="23" font-weight="700" fill="#143c52">INVERTER</text><text x="1388" y="430" font-size="18" fill="#637783">Grid-side</text><path d="M1445 465v90m-55 0h110m-95 0-45 95m115-95 45 95" fill="none" stroke="#475f6c" stroke-width="5"/><text x="1360" y="695" font-size="24" font-weight="700" fill="#143c52">GRID INJECTION</text></g></svg>